<svg width="31" height="31" viewBox="0 0 31 31" fill="none" xmlns="http://www.w3.org/2000/svg">
<path d="M24.65 14.3854C24.65 14.3854 26.7748 14.4913 26.7748 13.2423C26.7748 11.6103 23.946 10.1397 23.946 10.1397C23.946 10.1397 24.3904 9.19871 24.6655 8.67365C24.9432 8.14923 25.7201 6.09806 25.7905 5.62854C25.879 5.04083 25.7453 4.85677 25.7453 4.85677C25.5535 6.11808 23.4998 9.74831 23.3364 9.87231C21.333 8.93327 18.583 8.67106 18.583 8.67106C18.583 8.67106 15.8886 3 13.3556 3C10.8434 3 10.8556 7.85667 10.8556 7.85667C10.8556 7.85667 10.1465 6.4791 9.2559 6.4791C7.95454 6.4791 7.52506 8.4489 7.52506 10.5866C4.95465 10.5866 2.79046 11.1614 2.59865 11.2169C2.40425 11.2725 1.79652 11.7142 2.071 11.658C2.63352 11.4791 5.27756 11.0703 7.59094 11.2699C7.71752 13.3004 8.90263 15.9444 8.90263 15.9444C8.90263 15.9444 6.36256 19.6276 6.36256 22.2562C6.36256 22.9504 6.61961 24.3125 8.44602 24.3125C9.97536 24.3125 11.7333 23.296 12.0562 23.1093C11.774 23.513 11.5648 24.277 11.5648 24.6303C11.5648 24.7943 11.63 25.1327 11.9006 25.3923C12.3314 24.9635 12.755 24.5373 13.2801 24.0148C12.715 23.9114 12.6394 23.4923 12.6394 23.3838C12.6394 23.006 12.9346 22.5571 12.9346 22.5571C12.9346 22.5571 14.3095 21.6284 14.3948 21.5303L15.4088 23.4225C15.4088 23.4225 14.3696 24.0374 13.5552 24.0374C13.4519 24.0374 13.3608 24.0303 13.2801 24.0148C12.755 24.5373 12.3314 24.9635 11.8999 25.3923C12.1021 25.5861 12.4147 25.7353 12.9139 25.7353C14.4277 25.7353 16.1205 24.5747 16.1205 24.5747C16.1205 24.5747 17.7176 27.2291 19.0797 28.4445C19.4478 28.7726 19.8011 28.8333 19.8011 28.8333C19.8011 28.8333 18.4442 27.5268 16.6578 24.164C18.3176 23.1371 20.0458 20.7178 20.0458 20.7178C20.0458 20.7178 20.2506 20.7223 21.827 20.7223C24.2967 20.7223 27.8062 20.2031 27.8062 18.2404C27.8062 16.2144 24.65 14.3848 24.65 14.3848V14.3854ZM24.9277 13.1648C24.9277 13.881 24.2438 13.8733 24.2438 13.8733L23.7271 13.9055L22.1474 13.1467C22.1474 13.1467 23.0709 11.7239 23.2879 11.3254C23.452 11.421 24.9277 12.3446 24.9277 13.1641V13.1648ZM9.99021 8.07819C10.3583 8.07819 10.7219 8.52769 10.8705 8.90808C10.8705 9.15802 11.0016 10.626 11.0016 10.626L8.87034 10.5485C8.87034 8.62327 9.62209 8.07819 9.99021 8.07819ZM9.77063 21.4314C8.60554 21.4314 8.36529 20.783 8.36529 20.1979C8.36529 18.8739 9.41994 17.0243 9.41994 17.0243C9.41994 17.0243 10.6031 19.514 12.6698 20.5634C11.6455 21.1666 10.7975 21.4314 9.77063 21.4314ZM16.1004 23.006C15.6031 22.1354 15.2376 21.2274 15.2376 21.2274C15.2376 21.2274 17.2784 21.361 18.3764 20.2257C17.6918 20.5331 16.6023 20.9219 15.3338 20.803L20.8409 15.0261C20.7272 14.8904 20.1291 14.4706 19.9832 14.4003C19.1933 15.3516 16.123 18.6363 13.2794 20.2612C9.68021 18.2979 8.92329 12.5183 8.84773 11.3203L10.813 11.5095C10.813 11.5095 10.0735 12.8186 10.0735 13.7828C10.0735 14.7458 10.1898 14.7994 10.1898 14.7994C10.1898 14.7994 10.1639 13.1163 11.2011 11.8195C11.9936 16.0278 12.8157 18.1848 13.459 19.4713C13.7871 19.3351 14.3974 19.0651 14.3974 19.0651C14.3974 19.0651 12.5813 13.8274 12.682 10.2831C13.3762 9.91399 14.1222 9.65205 14.8947 9.50613C14.8766 9.27248 14.8203 9.04339 14.728 8.828C14.0674 8.98171 13.3582 9.22648 12.695 9.61721C12.7531 7.6416 13.4164 5.85588 14.5918 5.85588C15.7523 5.85588 17.4095 8.5955 17.4095 8.5955C17.4095 8.5955 16.1863 8.487 14.728 8.82542C14.8262 9.0521 14.8746 9.27944 14.8947 9.50613C15.2783 9.43508 15.6819 9.38988 16.1004 9.38988C19.7236 9.38988 22.6343 10.9496 22.6343 10.9496L21.497 12.5409C21.497 12.5409 20.4798 10.7022 19.0474 10.3741C19.8036 10.9366 20.649 11.6832 21.0908 12.7553C18.0883 11.5799 14.4658 10.9618 13.3027 10.8256C13.2019 11.2544 13.2142 11.8673 13.2142 11.8673C13.2142 11.8673 18.0735 12.7631 21.6075 14.7865C21.5849 19.2136 16.7663 22.6094 16.1004 23.006ZM20.702 19.698C20.702 19.698 22.2133 17.7179 22.1874 15.0965C22.1874 15.0965 24.6222 16.6051 24.6222 18.0789C24.6248 19.7239 20.702 19.698 20.702 19.698Z" fill="#0288D1"/>
<path d="M11.5649 24.6302C11.5649 24.2795 11.7741 23.5129 12.0538 23.1093C12.531 22.8697 12.9347 22.5564 12.9347 22.5564C12.9347 22.5564 12.637 23.006 12.637 23.3844C12.637 23.4923 12.7125 23.9114 13.2776 24.0147C13.3584 24.0296 13.4494 24.0373 13.5528 24.0373C14.3697 24.0373 15.4063 23.4219 15.4063 23.4219C12.0719 26.4114 11.5649 24.6735 11.5649 24.6302ZM12.1048 19.4028L12.0641 19.4209L12.0163 19.4513C11.841 19.5541 11.6609 19.6483 11.4764 19.7335C11.837 20.0602 12.2381 20.3392 12.6699 20.5634C12.8591 20.473 13.1465 20.3309 13.2802 20.2631C12.8541 20.0265 12.4592 19.7375 12.1048 19.4028ZM8.7187 21.1111C8.44874 20.8689 8.36542 20.526 8.36542 20.1979C8.36542 18.8739 9.42007 17.0242 9.42007 17.0242L8.9034 15.947C8.9034 15.947 6.28972 19.8775 8.71159 21.1285C8.71611 21.1137 8.71417 21.1259 8.7187 21.1111ZM24.5823 18.3611C24.1586 19.7212 20.7021 19.698 20.7021 19.698L20.046 20.7178C20.046 20.7178 20.2404 20.7223 21.5779 20.7249C21.5779 20.7249 24.3175 20.5008 24.5823 18.3611ZM21.5243 16.204C21.5243 16.204 21.7464 16.3481 22.0416 16.5754C22.1352 16.1136 22.1934 15.6196 22.1882 15.0964C22.059 15.0189 21.7316 14.8446 21.6102 14.789C21.6041 15.2495 21.5476 15.708 21.4416 16.1562C21.4739 16.1763 21.5043 16.1943 21.5243 16.204ZM24.9278 13.1641C24.9278 13.881 24.2439 13.8732 24.2439 13.8732L23.7272 13.9055L24.6508 14.3828C27.6326 14.2614 25.3392 11.9409 23.2881 11.3254C23.4521 11.421 24.9278 12.3445 24.9278 13.1641ZM14.2289 5.92108C14.3458 5.88093 14.4683 5.85978 14.5919 5.85843C15.7525 5.85843 17.4097 8.59806 17.4097 8.59806L18.5832 8.67104C18.5832 8.67104 18.3132 8.10593 17.8663 7.33416C17.2534 6.33958 15.3637 5.35145 14.2289 5.92108ZM9.87151 6.99639C8.72192 6.87497 8.7568 10.1849 8.87047 10.5485C8.87047 8.62583 9.62222 8.07816 9.99034 8.07816C10.3585 8.07816 10.7221 8.52766 10.8706 8.90806C10.8532 8.34102 10.8558 7.85664 10.8558 7.85664C10.8558 7.85664 10.3966 7.09714 9.87215 6.99639H9.87151ZM13.9868 9.67014C13.9913 9.44539 14.0145 9.23356 14.0397 9.02431C13.5876 9.17091 13.131 9.36014 12.6951 9.61718C12.6822 9.88714 12.697 10.0111 12.6822 10.2856C13.0432 10.0919 13.4895 9.90199 13.9842 9.74312C13.9842 9.72052 13.9842 9.69791 13.9868 9.67014ZM16.0877 23.006C15.591 22.1354 15.2222 21.2273 15.2222 21.2273C15.2222 21.2273 17.2663 21.361 18.3636 20.2256C17.6771 20.5331 16.5901 20.9218 15.3185 20.803C15.0511 21.0833 14.7282 21.2977 14.3801 21.5296L15.394 23.4219C15.394 23.4219 16.1664 22.9575 16.0883 23.006H16.0877ZM16.6431 24.1639C16.7994 24.0677 16.1057 24.5747 16.1057 24.5747C16.1057 24.5747 17.7003 27.2291 19.0649 28.4445C19.4331 28.7726 19.7838 28.8333 19.7838 28.8333C19.7838 28.8333 18.4288 27.5268 16.6431 24.1639ZM25.7454 4.85352C25.5536 6.11483 23.4999 9.74764 23.3384 9.87164C23.1369 9.77799 23.9487 10.1364 23.9487 10.1364C23.9487 10.1364 24.3905 9.19804 24.6682 8.67039C24.9427 8.14597 25.7222 6.09739 25.7907 5.62852C25.8791 5.04081 25.7454 4.85352 25.7454 4.85352ZM22.6371 10.9508L21.4965 12.5428C21.4965 12.5428 20.48 10.7041 19.0475 10.376C19.6249 10.8075 20.2533 11.3448 20.715 12.0513V12.0416V12.052C20.8584 12.2716 20.9869 12.5034 21.0909 12.7579C21.6838 12.9826 22.1979 13.1667 22.1475 13.1467C22.1475 13.1467 23.0711 11.7239 23.2881 11.3254L22.6371 10.9521V10.9508ZM11.0017 10.6279L8.87047 10.5478C8.83494 10.7622 8.84786 11.1 8.84786 11.3196L10.8131 11.5088C10.8131 11.5088 10.0762 12.8179 10.0762 13.7841C10.0762 14.7477 10.1899 14.7981 10.1899 14.7981C10.1899 14.7981 10.1692 13.3049 11.0347 12.0462C11.0321 12.0436 11.0295 12.0436 11.0295 12.041L11.0347 12.0462C11.0876 11.9706 11.1432 11.8944 11.2039 11.8188C11.0682 11.0593 11.0017 10.6286 11.0017 10.6286V10.6279ZM7.52584 10.5853C4.95542 10.5853 2.79059 11.1601 2.59619 11.2163C2.40244 11.2718 1.79407 11.7136 2.07113 11.6574C2.63365 11.4785 5.27769 11.0697 7.59107 11.2718C7.56492 11.0434 7.54317 10.8145 7.52584 10.5853Z" fill="#01579B"/>
</svg>
