<svg width="18" height="22" viewBox="0 0 18 22" fill="none" xmlns="http://www.w3.org/2000/svg">
<path d="M7.71343 7.21306H7.21975V4.14798H7.71343C8.01547 4.14798 8.16067 4.30093 8.16067 4.63741V6.72973C8.16067 7.0601 8.01547 7.21306 7.71343 7.21306ZM6.35431 14.8972H6.38917H6.42397H6.45883H6.49369H6.52855H6.56341H6.59245H6.62731H6.66217H6.69697H6.73183H6.76669H6.80155H6.83641H6.87127L6.85963 14.8666L6.84799 14.8359L6.83641 14.7993L6.82477 14.7687L6.81313 14.7381L6.80155 14.7075L6.78991 14.6708L6.77833 14.6402L6.76669 14.6096L6.75505 14.579L6.74347 14.5484L6.73183 14.5117L6.72025 14.4811L6.70861 14.4505L6.69697 14.42L6.68539 14.3893L6.67375 14.3527L6.66217 14.3221L6.65053 14.2915L6.63889 14.2609L6.62731 14.2242L6.61567 14.1936L6.60403 14.163L6.59245 14.1936L6.58081 14.2242L6.56923 14.2609L6.55759 14.2915L6.54595 14.3221L6.53437 14.3527L6.52273 14.3893L6.51115 14.42L6.49951 14.4505L6.48787 14.4811L6.47629 14.5117L6.46465 14.5484L6.45307 14.579L6.44143 14.6096L6.42979 14.6402L6.41821 14.6708L6.40657 14.7075L6.39493 14.7381L6.38335 14.7687L6.37171 14.7993L6.36013 14.8359L6.34849 14.8666L6.33685 14.8972H6.37171H6.35431ZM17.8839 1.84153V16.8304C17.8839 16.9711 17.878 17.0996 17.8664 17.222C17.8374 17.4912 17.8374 17.7542 17.5934 18.054C17.5702 18.0845 17.3262 18.2742 17.3262 18.2742C17.1927 18.3415 17.1055 18.3905 16.9545 18.4577L9.79285 21.6207C9.42109 21.7981 9.26425 21.8715 8.99707 21.8654C8.72989 21.8715 8.57311 21.7981 8.20135 21.6207L1.03969 18.4577C0.888666 18.3966 0.80154 18.3476 0.66795 18.2742C0.66795 18.2742 0.424001 18.0845 0.400768 18.054C0.162627 17.7542 0.156818 17.4912 0.127777 17.222C0.11616 17.0996 0.110352 16.9711 0.110352 16.8304V1.84153C0.11616 0.59959 0.551784 0.140747 1.73087 0.140747H16.275C17.4482 0.140747 17.8839 0.59959 17.8839 1.84153ZM9.90901 11.3549H11.1113V3.0284H9.90901V11.3549ZM9.36883 14.3159L9.35137 14.2853L9.33397 14.2548L9.31657 14.2303L9.29911 14.1997L9.28171 14.1691L9.26425 14.1385L9.24685 14.1079L9.22945 14.0835L9.21199 14.0529L9.19459 14.0223L9.17713 13.9917L9.15973 13.9611L9.14227 13.9305L9.12487 13.8999L9.10747 13.8693L9.09001 13.8387L9.07261 13.8082L9.05515 13.7776L9.03775 13.747L9.02035 13.7164L9.00289 13.6858L8.98549 13.6552L8.96803 13.6246L8.95063 13.594L8.93317 13.5634L8.91577 13.539L8.89837 13.5084L8.88091 13.4778L8.86351 13.4472L8.84605 13.4227L8.82865 13.3921L8.81125 13.3616H8.77639H8.74153H8.71249H8.67763H8.64277H8.60791H8.57887H8.54401H8.50921H8.47435H8.44531H8.41045H8.37559H8.34073H8.31169H8.27683H8.24203H8.24779H8.21875H8.18395H8.14909V13.3982V13.435V13.4717V13.5084V13.5451V13.5818V13.6185V13.6552V13.6919V13.7286V13.7653V13.8021V13.8387V13.8755V13.9122V13.9488V13.9856V14.0223V14.0529V14.0896V14.1263V14.163V14.1997V14.2364V14.2731V14.3098V14.3465V14.3832V14.42V14.4566V14.4933V14.5301V14.5668V14.6035V14.6402V14.6769V14.7136V14.7503V14.787V14.8237V14.8604V14.8972V14.9338V14.9706V15.0073V15.044V15.0807V15.1174V15.1541V15.1908V15.2275V15.2642V15.3009V15.3377V15.3682V15.4049V15.4416V15.4783V15.5151V15.5517V15.5885V15.6252V15.6619V15.6986V15.7353V15.772V15.8087V15.8454V15.8821V15.9188V15.9556V15.9922V16.0289H8.18395H8.21875H8.25361H8.28847H8.32333H8.35819H8.39305H8.42785H8.46271H8.49757H8.53243H8.56729H8.60215H8.63695H8.67181H8.70667H8.74153H8.77639H8.81125V15.9922V15.9556V15.9188V15.8821V15.8454V15.8087V15.772V15.7353V15.6986V15.6619V15.6313V15.5946V15.5579V15.4172V15.3804V15.3438V15.307V15.2703V15.2336V15.1969V15.1602V15.1235V15.1112V15.0746V15.0378V15.0011V14.9645V14.9277V14.891V14.8666V14.8298V14.7932V14.7625V14.7258V14.6891V14.6524V14.6157V14.579V14.5606V14.524V14.4872V14.4505V14.4138L8.82865 14.4444L8.84605 14.475L8.86351 14.5056L8.88091 14.5362L8.89837 14.5668L8.91577 14.5974L8.93317 14.628L8.95063 14.6585L8.96803 14.6891L8.98549 14.7197L9.00289 14.7503L9.02035 14.7809L9.03775 14.8115L9.05515 14.8421L9.07261 14.8727L9.09001 14.9033L9.10747 14.9338L9.12487 14.9645L9.14227 14.995L9.15973 15.0256L9.17713 15.0562L9.19459 15.0868L9.21199 15.1174L9.22945 15.148L9.24685 15.1786L9.26425 15.2091L9.28171 15.2398L9.29911 15.2703L9.31657 15.3009L9.33397 15.3315L9.35137 15.3621L9.36883 15.3927L9.38623 15.4233L9.40369 15.4539H9.41527L9.43273 15.4233L9.45013 15.3927L9.46759 15.3621L9.48499 15.3315L9.50239 15.3009L9.51985 15.2703L9.53725 15.2398L9.55471 15.2091L9.57211 15.1786L9.58951 15.148L9.60697 15.1174L9.62437 15.0868L9.64183 15.0562L9.65923 15.0256L9.67669 14.995L9.69409 14.9645L9.71149 14.9338L9.72895 14.9033L9.74635 14.8727L9.76381 14.8421L9.78121 14.8115L9.79861 14.7809L9.81607 14.7503L9.83347 14.7197L9.85093 14.6891L9.86833 14.6585L9.88579 14.628L9.90319 14.5974L9.92059 14.5668L9.93805 14.5362L9.95545 14.5056L9.97291 14.475L9.99031 14.4444L10.0077 14.4138L10.0252 14.3832V14.42V14.4566V14.4933V14.5301V14.5668V14.6035V14.6402V14.6769V14.7136V14.7503V14.787V14.8237V14.8604V14.8972V14.9338V14.9706V15.0073V15.044V15.0807V15.1174V15.1541V15.1908V15.2275V15.2642V15.3009V15.3377V15.3743V15.4111V15.4478V15.4844V15.5212V15.5579V15.5946V15.6313V15.668V15.7047V15.7414V15.7781V15.8148V15.8515V15.8883V15.9249V15.9617H10.06H10.0949H10.1297H10.1646H10.1994H10.2343H10.2691H10.304H10.3388H10.3737H10.4085H10.4434H10.4782H10.5131H10.5479H10.5828H10.6176H10.6525H10.6873V15.9249V15.8883V15.8515V15.8148V15.7781V15.7414V15.6619V15.6252V15.5885V15.5517V15.5151V15.4783V15.4416V15.4172V15.3804V15.3438V15.307V15.2703V15.2398V15.203V15.1663V15.1296V15.1112V15.0746V15.0378V15.0011V14.9645V14.9277V14.891V14.8666V14.8298V14.7932V14.7564V14.7197V14.683V14.6463V14.6096V14.5729V14.5362V14.4995V14.4628V14.4261V14.3893V14.3527V14.3159V14.2792V14.2425V14.2058V14.1691V14.1324V14.0957V14.0712V14.0345V14.0039V13.9672V13.9305V13.8938V13.8571V13.8204V13.7837V13.7653V13.7286V13.6919V13.6552V13.6185V13.5818V13.5451V13.5206V13.4839V13.4472V13.4105V13.3738H10.6525H10.6176H10.5886H10.5537H10.5189H10.484H10.455H10.3969H10.3621H10.3272H10.2982H10.2633H10.2285H10.1936H10.1646H10.1297H10.1065H10.0716H10.0484H10.0135H9.97867L9.96127 13.4043L9.94387 13.435L9.92641 13.4594L9.90901 13.49L9.89155 13.5206L9.87415 13.5512L9.85675 13.5756L9.83929 13.6063L9.82189 13.6369L9.80443 13.6674L9.78703 13.698L9.76957 13.7286L9.75799 13.7653L9.74053 13.7959L9.72313 13.8265L9.70573 13.8571L9.68827 13.8877L9.67087 13.9183L9.65341 13.9488L9.63601 13.9795L9.61855 14.01L9.60115 14.0406L9.58375 14.0712L9.56629 14.1018L9.54889 14.1263L9.53143 14.1569L9.51403 14.1875L9.49663 14.218L9.47917 14.2487L9.46759 14.2548L9.45013 14.2853L9.43273 14.3159L9.41527 14.3465L9.39787 14.3771L9.38041 14.3465L9.36883 14.3159ZM6.01741 11.3549H7.21975V8.33262H7.90513C8.88091 8.33262 9.36883 7.81873 9.36883 6.78479V4.57623C9.36883 3.5423 8.88673 3.0284 7.90513 3.0284H6.01741V11.3549ZM2.73571 11.3549H5.43078V10.1986H3.93804V7.69022H5.35527V6.53393H3.93804V4.18469H5.41335V3.0284H2.73571V11.3549ZM5.01258 14.4383H4.97773H4.94288H4.90803H4.87318H4.83833H4.80348H4.76863H4.73378H4.69893H4.66408H4.62923H4.59438H4.58857H4.55372H4.51887H4.48402H4.44917H4.41432H4.37947H4.34462H4.30977H4.27492H4.24007H4.20522H4.17037H4.13552H4.10067H4.06582H4.03097H3.99612H3.96127H3.92642V14.475V14.5056V14.5423V14.579V14.6157V14.6463V14.683V14.7197V14.7564V14.787V14.8237V14.8604V14.8972V14.9277V14.9645H3.96127H3.99031H4.02517H4.06001H4.09486H4.1239H4.15876H4.1936H4.22845H4.2575H4.29235H4.32719H4.36205H4.39109H4.41432V15.0011V15.0378V15.0746V15.1112V15.148V15.1847V15.2214V15.2581V15.2948L4.39109 15.3132L4.36786 15.3254L4.33881 15.3377L4.30977 15.3499L4.28073 15.3621L4.25169 15.3682L4.21684 15.3804L4.18199 15.3865L4.14714 15.3927L4.11229 15.3988L4.07744 15.4049L4.04259 15.4111H4.00774H3.97289L3.93804 15.4049L3.90319 15.3988L3.86834 15.3927L3.83349 15.3865L3.79864 15.3743L3.76379 15.3621L3.73475 15.3499L3.70571 15.3377L3.67666 15.3254L3.64762 15.307L3.62439 15.2887L3.60115 15.2703L3.57211 15.252L3.54888 15.2336L3.53146 15.2091L3.50822 15.1847L3.49079 15.1602L3.47337 15.1296L3.45595 15.099L3.43852 15.0685L3.4211 15.0378L3.40948 15.0073L3.39787 14.9706L3.38624 14.9399L3.37463 14.9094L3.36882 14.8788L3.36301 14.8482L3.3572 14.8176L3.3514 14.7809L3.34559 14.7503L3.33978 14.7136V14.6769V14.6708V14.6341L3.34559 14.5974L3.3514 14.5606L3.3572 14.524L3.36301 14.4933L3.36882 14.4566L3.38044 14.42L3.39206 14.3893L3.40367 14.3588L3.41529 14.3282L3.43271 14.2976L3.45014 14.267L3.46756 14.2364L3.48499 14.1936L3.50242 14.163L3.52565 14.1385L3.54307 14.114L3.5663 14.0957L3.58954 14.0774L3.61277 14.059L3.64181 14.0406L3.66505 14.0223L3.69409 14.0039L3.72313 13.9917L3.75217 13.9795L3.78121 13.9672L3.81025 13.955L3.8393 13.9488L3.87415 13.9427L3.90319 13.9366L3.93804 13.9305H3.97289H4.00774L4.04259 13.9366L4.07744 13.9427L4.11229 13.9488L4.14714 13.955L4.18199 13.9611L4.21103 13.9672L4.24007 13.9795L4.26911 13.9917L4.29815 14.0039L4.32139 14.0161L4.35043 14.0284L4.37947 14.0467L4.4027 14.0651L4.43174 14.0835L4.45498 14.1018L4.47821 14.1201L4.50725 14.1385L4.53049 14.163L4.55953 14.1813L4.57696 14.1508L4.60019 14.1263L4.61761 14.0957L4.64084 14.0651L4.65827 14.0345L4.6757 14.01L4.69893 13.9795L4.71635 13.9488L4.73959 13.9183L4.75701 13.8938L4.77443 13.8632L4.79767 13.8326L4.8151 13.8082L4.83252 13.7776L4.85575 13.747L4.87318 13.7164L4.89641 13.6919L4.91384 13.6613L4.89061 13.643L4.86156 13.6185L4.83833 13.6001L4.80929 13.5818L4.78606 13.5634L4.76282 13.5451L4.73378 13.5268L4.71055 13.5084L4.68151 13.49L4.65246 13.4717L4.62342 13.4594L4.59438 13.4411L4.56534 13.4289L4.53629 13.4166L4.50725 13.4043L4.47821 13.3921L4.45498 13.3799L4.42594 13.3738L4.3969 13.3616L4.36786 13.3554L4.33881 13.3493L4.30977 13.3432L4.27492 13.3371L4.24007 13.331L4.21103 13.3248L4.17618 13.3187L4.14133 13.3126H4.10648L4.07163 13.3065L4.03678 13.3003H4.00774H3.97289H3.93804H3.90319L3.86834 13.3065L3.83349 13.3126L3.79864 13.3187L3.76379 13.3248L3.72894 13.331L3.69409 13.3371L3.65924 13.3432L3.6302 13.3554L3.59534 13.3616L3.5663 13.3738L3.53726 13.3799L3.50822 13.3921L3.47337 13.4043L3.45014 13.4166L3.41529 13.435L3.38624 13.4472L3.3572 13.4594L3.32816 13.4778L3.29912 13.4961L3.27008 13.5145L3.24685 13.5329L3.21781 13.5512L3.19457 13.5695L3.16553 13.5879L3.1423 13.6063L3.11906 13.6246L3.09002 13.6491L3.06679 13.6674L3.04355 13.6919L3.02032 13.7164V13.7653L2.99709 13.7898L2.97967 13.8143L2.96224 13.8448L2.94481 13.8755L2.92739 13.906L2.90996 13.9366L2.89254 13.9672L2.87512 13.9978L2.85769 14.0284L2.84026 14.059L2.82865 14.0896L2.81703 14.1201L2.80541 14.1508L2.7938 14.1813L2.78218 14.218L2.77057 14.2487L2.75895 14.2853L2.74733 14.3159L2.74152 14.3527L2.7299 14.3893L2.7241 14.42L2.71829 14.4566L2.71248 14.4933L2.70667 14.5301L2.70086 14.5668V14.6035L2.69506 14.6402V14.6769V14.683V14.7197V14.7564L2.70086 14.7932L2.70667 14.8298L2.71248 14.8666L2.71829 14.8972L2.7241 14.9338L2.7299 14.9645L2.73571 15.0011L2.74733 15.0317L2.75314 15.0685L2.76476 15.099L2.77057 15.1296L2.78218 15.1602L2.7938 15.1908L2.80541 15.2214L2.81703 15.252L2.82865 15.2826L2.84026 15.3132L2.85769 15.3438L2.87512 15.3743L2.89254 15.4049L2.90996 15.4355L2.92739 15.4661L2.94481 15.4967L2.96224 15.5212L2.97967 15.5517L2.99709 15.5762L3.02032 15.5395L3.04355 15.564L3.06679 15.5823L3.09002 15.6068L3.11326 15.6252L3.13649 15.6435L3.15972 15.6619L3.18296 15.6802L3.212 15.6986L3.23523 15.7169L3.26427 15.7353L3.29332 15.7536L3.31655 15.772L3.34559 15.7904L3.37463 15.8026L3.40367 15.8148L3.43271 15.827L3.46756 15.8393L3.49661 15.8515L3.52565 15.8638L3.55469 15.876L3.58954 15.8821L3.61858 15.8944L3.65343 15.9005L3.68247 15.9066L3.71732 15.9127L3.75217 15.9188L3.78702 15.9249L3.82187 15.931L3.85672 15.9372L3.89157 15.9433L3.92642 15.9494H3.94966H3.9845H4.01935H4.05421L4.08905 15.9433L4.1239 15.9372L4.15876 15.931L4.1936 15.9249L4.22845 15.9188L4.26331 15.9127L4.29815 15.9066L4.333 15.9005L4.35624 15.9066L4.39109 15.9005L4.42013 15.8883L4.45498 15.876L4.48402 15.8638L4.51306 15.8515L4.5421 15.8393L4.57115 15.827L4.606 15.8148L4.63504 15.8026L4.66989 15.7904L4.69893 15.772L4.72797 15.7598L4.75701 15.7414L4.78606 15.7231L4.8151 15.7047L4.83833 15.6864L4.86737 15.668L4.89061 15.6496L4.91384 15.6313L4.94288 15.613L4.96611 15.5946L4.99516 15.5762L5.01839 15.5579V15.5212V15.4844V15.4478V15.4172V15.3804V15.356V15.3193V15.2826V15.2459V15.2153V15.1786V15.1419V15.1051V15.0685V15.0501V15.0134V14.9828V14.9461V14.9094V14.8727V14.8359V14.7993V14.7625V14.7442V14.7075V14.6708V14.6341V14.5974V14.5606V14.5301V14.4933V14.4566V14.4383H5.01258ZM5.55275 15.9005H5.5876H5.62245H5.6573H5.69215H5.727H5.75024H5.78509H5.81993H5.85479H5.88964H5.92448L5.9361 15.8699L5.94772 15.8393L5.95934 15.8087L5.97095 15.772L5.98257 15.7414L5.99419 15.7108L6.00583 15.6802L6.01741 15.6496L6.02905 15.6191L6.04063 15.5885L6.05227 15.5579L6.06391 15.5212L6.07549 15.4906L6.08713 15.46L6.09871 15.4294H6.13357H6.16843H6.20329H6.23815H6.26719H6.30205H6.33685H6.37171H6.40657H6.44143H6.47629H6.51115H6.54595H6.58081H6.60985H6.64471H6.67957H6.71443H6.74929H6.78409H6.81895H6.85381H6.88867H6.92353H6.95257H6.98743H7.02223H7.05709H7.09195L7.10359 15.46L7.11517 15.4906L7.12681 15.5212L7.13845 15.5579L7.15003 15.5885L7.16167 15.6191L7.17325 15.6496L7.18489 15.6802L7.19653 15.7108L7.20811 15.7414L7.21975 15.772L7.23133 15.8087L7.24297 15.8393L7.25461 15.8699L7.26619 15.9005H7.30105H7.33591H7.36495H7.39981H7.43467H7.46947H7.50433H7.53337H7.56823H7.60309H7.63795H7.67281H7.70761H7.73671H7.77151H7.80637H7.84123H7.87609H7.90513H7.93999H7.97485L7.96321 15.8699L7.95157 15.8393L7.93999 15.8087L7.92835 15.772L7.91671 15.7414L7.90513 15.7108L7.89349 15.6802L7.88191 15.6496L7.87027 15.6191L7.85863 15.5823L7.84705 15.5517L7.83541 15.5212L7.82383 15.4906L7.81219 15.46L7.80055 15.4294L7.78897 15.3927L7.77733 15.3621L7.76575 15.3315L7.75411 15.3009L7.74247 15.2703L7.73089 15.2398L7.71925 15.203L7.70761 15.1725L7.69603 15.1419L7.68439 15.1112L7.67281 15.0807L7.66117 15.0501L7.64953 15.0134L7.63795 14.9828L7.62631 14.9522L7.61473 14.9216L7.60309 14.891L7.59145 14.8604L7.57987 14.8237L7.56823 14.7932L7.55665 14.7625L7.54501 14.732L7.53337 14.7014L7.52179 14.6708L7.51015 14.6341L7.49857 14.6035L7.48693 14.5729L7.47529 14.5423L7.46371 14.5117L7.45207 14.4811L7.44043 14.4505L7.42885 14.4138L7.41721 14.3832L7.40563 14.3527L7.39399 14.3221L7.38235 14.2915L7.37077 14.2609L7.35913 14.2242L7.34755 14.1936L7.33591 14.163L7.32427 14.1324L7.31269 14.1018L7.30105 14.0712L7.28941 14.0345L7.27783 14.0039L7.26619 13.9734L7.25461 13.9427L7.24297 13.9122L7.23133 13.8816L7.21975 13.8448L7.20811 13.8143L7.19653 13.7837L7.18489 13.7531L7.17325 13.7225L7.16167 13.6919L7.15003 13.6552L7.13845 13.6246L7.12681 13.594L7.11517 13.5634L7.10359 13.5329L7.09195 13.5022L6.91189 13.4594L6.90031 13.4289L6.88867 13.3982L6.87703 13.3677H6.84217H6.81313H6.77833H6.74347H6.70861H6.67957H6.64471H6.60985H6.57499H6.54595H6.51115H6.47629H6.44143H6.41239H6.37753H6.34267H6.33109H6.30205H6.26719L6.25555 13.3982L6.24397 13.4289L6.23233 13.4594L6.22069 13.4961L6.20911 13.5268L6.19747 13.5573L6.18583 13.5879L6.17425 13.6185L6.16261 13.6491L6.15103 13.6858L6.13939 13.7164L6.12775 13.747L6.11617 13.7776L6.10453 13.8082L6.09295 13.8387L6.08131 13.8755L6.06967 13.906L6.05809 13.9366L6.04645 13.9672L6.03487 13.9978L6.02323 14.0284L6.01159 14.0651L5.99999 14.0957L5.98838 14.1263L5.97676 14.1569L5.96515 14.1875L5.95353 14.218L5.94191 14.2548L5.93029 14.2853L5.91868 14.3159L5.90706 14.3465L5.89544 14.3771L5.88383 14.4077L5.87221 14.4444L5.8606 14.475L5.84897 14.5056L5.83736 14.5362L5.82574 14.5668L5.81413 14.5974L5.80251 14.628L5.79089 14.6646L5.77928 14.6953L5.76766 14.7258L5.75605 14.7564L5.74443 14.787L5.73281 14.8176L5.72119 14.8543L5.70958 14.8849L5.69796 14.9155L5.68634 14.9461L5.67473 14.9767L5.66311 15.0073L5.6515 15.044L5.63988 15.0746L5.62826 15.1051L5.61664 15.1357L5.60503 15.1663L5.59341 15.1969L5.58179 15.2336L5.57018 15.2642L5.55856 15.2948L5.54695 15.3254L5.53533 15.356L5.52371 15.3865L5.51209 15.4233L5.50048 15.4539L5.48886 15.4844L5.47724 15.5151L5.46563 15.5456L5.45401 15.5762L5.4424 15.613L5.43078 15.6435L5.41916 15.6741L5.40754 15.7047L5.39593 15.7353L5.38431 15.7659L5.37269 15.8026L5.36108 15.8332L5.34946 15.8638L5.33785 15.8944H5.28557H5.32042H5.35527H5.39012H5.42497H5.45982H5.49467H5.5179H5.55275V15.9005ZM12.4588 18.886H5.57599L8.94481 20.1096L12.4588 18.886ZM13.0397 15.3315H13.0048H12.97H12.9351H12.9003H12.8655H12.8306H12.7957H12.7783H12.7435H12.7086H12.6738H12.6389H12.604H12.5692H12.546H12.5112H12.4763H12.4414H12.4066H12.3717H12.3369H12.3021H12.2672H12.2323H12.1975H12.1626H12.1278H12.093H12.0581H12.0232H11.9884H11.9535H11.9187H11.8839H11.849H11.8141H11.7793H11.7909H11.7561V15.2948V15.2581V15.2214V15.1847V15.148V15.1112V15.0746V15.0378V15.0011V14.9645V14.9277V14.891H11.7909H11.8258H11.8606H11.8954H11.9303H11.9652H12H12.0349H12.0639H12.0987H12.1336H12.1684H12.2033H12.2382H12.273H12.3078H12.3427H12.3775H12.4124H12.4473H12.4821H12.5169H12.5518H12.5866H12.6215H12.6564H12.6854H12.7203H12.7551H12.7899H12.8248H12.8596H12.8945H12.9294H12.9642V14.8666V14.8359V14.7993V14.7625V14.732V14.6953V14.6585V14.6218V14.5912V14.5545V14.5179V14.4995V14.4628V14.4261V14.3954V14.3588H12.9294H12.8945H12.8596H12.8248H12.7899H12.7551H12.7203H12.6854H12.604H12.5692H12.5344H12.4995H12.4647H12.4298H12.3949H12.3601H12.3253H12.2904H12.2556H12.2207H12.1858H12.151H12.1162H12.0813H12.0465H12.0174H11.9826H11.9477H11.9129H11.878H11.8432H11.8083H11.7909H11.7561V14.3221V14.2853V14.2487V14.2119V14.1936V14.1569V14.1263V14.0896V14.0529V14.0161V13.9795V13.9427H11.7909H11.8258H11.8606H11.8954H11.9303H11.9652H11.9942H12.0291H12.0639H12.0987H12.1336H12.1684H12.2033H12.2382H12.273H12.3078H12.3427H12.3775H12.4124H12.4414H12.4763H12.5112H12.546H12.5808H12.6157H12.6505H12.6854H12.7203H12.7551H12.7899H12.8248H12.8596H12.8887H12.9235H12.9584H12.9932H13.0281H13.0629H13.0978V13.906V13.8877V13.8509V13.8143V13.7776V13.747V13.7103V13.6735V13.643V13.6063V13.5695V13.539V13.5206V13.4839V13.4472V13.4166V13.3799H13.0629H13.0281H12.9932H12.9584H12.9235H12.8887H12.8538H12.819H12.7841H12.7493H12.6622H12.6273H12.5925H12.5576H12.5286H12.4937H12.4588H12.424H12.3892H12.3717H12.3369H12.3021H12.2672H12.2323H12.1975H12.1626H12.1278H12.093H12.0581H12.0232H11.9884H11.9535H11.9187H11.8839H11.849H11.8141H11.7793H11.7444H11.7096H11.6748H11.6399H11.605H11.576H11.5585H11.5237H11.4889H11.454H11.4192H11.3843H11.3495H11.3146H11.2798H11.2449H11.2101H11.1752H11.1404H11.1055V13.4166V13.4533V13.49V13.5268V13.5634V13.6001V13.6369V13.6735V13.7103V13.747V13.7837V13.8204V13.8571V13.8938V13.9305V13.9672V14.0039V14.0406V14.0712V14.1079V14.1446V14.1813V14.218V14.2548V14.2915V14.3282V14.3649V14.4016V14.4383V14.475V14.5117V14.5484V14.5851V14.6218V14.6585V14.6953V14.732V14.7687V14.8054V14.8421V14.8788V14.9155V14.9522V14.9889V15.0256V15.0624V15.099V15.1357V15.1725V15.2091V15.2459V15.2826V15.3193V15.356V15.3865V15.4233V15.46V15.4967V15.5334V15.5701V15.6068V15.6435V15.6802V15.7169V15.7536V15.7904V15.827V15.8638V15.9005V15.9372V15.9739V16.0106V16.0473H11.1404H11.1752H11.2101H11.2449H11.2798H11.3146H11.3495H11.3843H11.4192H11.454H11.4889H11.5237H11.5585H11.5934H11.6283H11.6631H11.698H11.7328H11.7677H11.8025H11.8374H11.8722H11.9071H11.9419H11.9767H12.0116H12.0465H12.0813H12.1162H12.151H12.1858H12.2207H12.2556H12.2904H12.3253H12.3601H12.3949H12.4298H12.4647H12.4995H12.5344H12.5692H12.604H12.6389H12.6738H12.7086H12.7435H12.7783H12.8131H12.848H12.8829H12.9177H12.9526H12.9874H13.0222H13.0571H13.092H13.1268V16.0106V15.98V15.9433V15.9066V15.8699V15.8393V15.8026V15.7659V15.6007V15.564V15.5273V15.4967V15.46V15.4233V15.3865V15.356V15.3315H13.0397ZM13.2081 11.4283H13.8064C14.7822 11.4283 15.2701 10.9144 15.2701 9.88044V7.94108H14.091V9.81927C14.091 10.1496 13.9458 10.3087 13.6438 10.3087H13.4172C13.1036 10.3087 12.9584 10.1557 12.9584 9.81927V4.564C12.9584 4.23362 13.1036 4.07456 13.4172 4.07456H13.6205C13.9225 4.07456 14.0677 4.22751 14.0677 4.564V6.19134H15.2469V4.49058C15.2469 3.45665 14.7764 2.95498 13.7948 2.95498H13.2081C12.2323 2.95498 11.7444 3.46889 11.7444 4.50281V9.88044C11.7444 10.9144 12.2265 11.4283 13.2081 11.4283ZM15.2991 15.0868L15.2933 15.0501L15.2875 15.0134L15.2817 14.9767L15.2759 14.9399L15.2701 14.9094L15.2585 14.8788L15.2469 14.8482L15.2352 14.8176L15.2178 14.787L15.2004 14.7564L15.183 14.7258L15.1656 14.6953L15.1423 14.6708L15.1191 14.6402L15.09 14.6157L15.0668 14.5912L15.0436 14.5729L15.0145 14.5545L14.9913 14.5362L14.9622 14.5179L14.9332 14.4995L14.8984 14.4811L14.8635 14.4689L14.8287 14.4505L14.7938 14.4383L14.7648 14.4261L14.7357 14.4138L14.7009 14.4016L14.6718 14.3893L14.637 14.3771L14.6022 14.3649L14.5673 14.3588L14.5324 14.3465L14.4976 14.3343L14.4627 14.3282L14.4279 14.3159L14.3931 14.3037L14.3582 14.2915L14.3233 14.2853L14.2943 14.2731L14.2653 14.267L14.242 14.2548L14.2188 14.2487L14.1781 14.2364L14.1433 14.2242L14.1084 14.2119L14.0852 14.1936L14.0562 14.1752L14.0329 14.1508L14.0213 14.1324L14.0039 14.0957L13.9981 14.0529V14.0467L14.0039 14.01L14.0155 13.9795L14.0329 13.9488L14.062 13.9183L14.0852 13.906L14.1084 13.8938L14.1375 13.8877L14.1723 13.8816L14.2072 13.8755H14.2478H14.2827L14.3117 13.8816L14.3466 13.8877L14.3814 13.8938L14.4163 13.8999L14.4511 13.906L14.4859 13.9122L14.5208 13.9244L14.5557 13.9366L14.5905 13.9488L14.6196 13.9611L14.6486 13.9734L14.6718 13.9856L14.7009 13.9978L14.7241 14.01L14.7531 14.0223L14.7822 14.0406L14.8113 14.0529L14.8403 14.0712L14.8635 14.0896L14.8926 14.1079L14.9216 14.1263L14.939 14.0957L14.9565 14.0651L14.9739 14.0345L14.9913 14.0039L15.0087 13.9734L15.0261 13.9427L15.0436 13.9122L15.061 13.8816L15.0784 13.8509L15.0958 13.8204L15.1132 13.7898L15.1307 13.7592L15.1481 13.7286L15.1656 13.698L15.183 13.6674L15.2004 13.6369L15.2178 13.6063L15.1946 13.5879L15.1713 13.5695L15.1423 13.5512L15.1191 13.5329L15.09 13.5145L15.0668 13.4961L15.0378 13.4778L15.0087 13.4594L14.9855 13.4472L14.9565 13.4289L14.9216 13.4166L14.8926 13.4043L14.8635 13.3921L14.8345 13.3799L14.7996 13.3677L14.7706 13.3616L14.7415 13.3493L14.7067 13.3371L14.6776 13.331L14.6428 13.3248L14.6079 13.3187L14.5789 13.3126L14.544 13.3065L14.5092 13.3003L14.4744 13.2942L14.4395 13.2881H14.4046L14.3698 13.282L14.335 13.2759H14.3001H14.2653H14.2304H14.1955L14.1607 13.282L14.1258 13.2881L14.091 13.2942L14.0562 13.3003L14.0271 13.3065L13.9923 13.3126L13.9632 13.3187L13.9342 13.3248L13.911 13.331L13.8819 13.3432L13.8471 13.3554L13.8122 13.3677L13.7832 13.3799L13.7541 13.3982L13.7251 13.4105L13.696 13.4289L13.6728 13.4472L13.6495 13.4655L13.6205 13.4839L13.5973 13.5022L13.5682 13.5268L13.545 13.5573L13.5218 13.5818L13.4986 13.6124L13.4811 13.643L13.4637 13.6735L13.4463 13.7042L13.4289 13.7347L13.4172 13.7653L13.4056 13.7959L13.394 13.8265L13.3882 13.8571L13.3766 13.8877L13.3708 13.9183L13.365 13.9488L13.3591 13.9856L13.3533 14.0161L13.3476 14.0529V14.0896V14.0957V14.1324L13.3533 14.1691L13.3591 14.2058L13.365 14.2425L13.3708 14.2731L13.3766 14.3098L13.3882 14.3404L13.3998 14.371L13.4114 14.4016L13.423 14.4261L13.4404 14.4566L13.4579 14.4872L13.4753 14.5117L13.4928 14.5362L13.5102 14.5606L13.5334 14.5851L13.5567 14.6096L13.5799 14.628L13.6089 14.6463L13.6321 14.6646L13.6612 14.683L13.6902 14.7014L13.7251 14.7197L13.7541 14.7381L13.789 14.7503L13.8238 14.7625L13.8586 14.7748L13.8935 14.787L13.9225 14.7993L13.9516 14.8115L13.9806 14.8237L14.0155 14.8298L14.0445 14.8421L14.0794 14.8543L14.1142 14.8604L14.1491 14.8727L14.184 14.8788L14.2188 14.891L14.2536 14.8972L14.2885 14.9094L14.3233 14.9155L14.3582 14.9277L14.3872 14.9338L14.4163 14.9461L14.4395 14.9522L14.4627 14.9583L14.5034 14.9767L14.5383 14.9889L14.5673 15.0011L14.5905 15.0134L14.6196 15.0317L14.6428 15.0501L14.6602 15.0746L14.6718 15.1112L14.6776 15.1541V15.1602L14.6718 15.1969L14.6602 15.2275L14.6486 15.2581L14.6312 15.2826L14.6022 15.3009L14.5789 15.3132L14.5498 15.3254L14.5208 15.3315L14.4918 15.3377L14.4569 15.3438L14.4221 15.3499H14.3814H14.3466L14.3117 15.3438H14.2768L14.242 15.3377L14.2072 15.3315L14.1723 15.3254L14.1375 15.3193L14.1026 15.3132L14.0736 15.3009L14.0387 15.2887L14.0039 15.2764L13.9749 15.2642L13.9458 15.252L13.9168 15.2398L13.8877 15.2275L13.8586 15.2153L13.8354 15.1969L13.8064 15.1847L13.7832 15.1663L13.7541 15.148L13.7251 15.1296L13.696 15.1112L13.667 15.0929L13.638 15.0746L13.6147 15.0562L13.5973 15.0868L13.5741 15.1112L13.5567 15.1419L13.5334 15.1725L13.516 15.1969L13.4986 15.2275L13.4753 15.2581L13.4579 15.2826L13.4347 15.3132L13.4172 15.3377L13.394 15.3682L13.3766 15.3988L13.3591 15.4233L13.3359 15.4539L13.3185 15.4844L13.2952 15.509L13.2778 15.5395L13.3011 15.564L13.3243 15.5823L13.3476 15.6007L13.3766 15.6191L13.3998 15.6374L13.423 15.6557L13.4521 15.6741L13.4753 15.6925L13.5043 15.7108L13.5276 15.7292L13.5567 15.7475L13.5857 15.7598L13.6147 15.7781L13.6438 15.7904L13.6728 15.8026L13.7077 15.8148L13.7367 15.827L13.7715 15.8393L13.8006 15.8515L13.8354 15.8638L13.8703 15.876L13.8993 15.8821L13.9342 15.8944L13.969 15.9005L14.0039 15.9066L14.0387 15.9127L14.0736 15.9188L14.1084 15.9249L14.1433 15.931L14.1781 15.9372L14.213 15.9433L14.2478 15.9494H14.2827L14.3175 15.9556H14.3524H14.3872H14.4221H14.4569L14.4918 15.9494L14.5266 15.9433L14.5615 15.9372L14.5905 15.931L14.6254 15.9249L14.6602 15.9188L14.6893 15.9127L14.7183 15.9066L14.7531 15.9005L14.7822 15.8883L14.817 15.876L14.8519 15.8638L14.8867 15.8515L14.9216 15.8393L14.9506 15.8209L14.9797 15.8087L15.0087 15.7904L15.0319 15.772L15.0552 15.7536L15.0842 15.7353L15.1075 15.7169L15.1365 15.6925L15.1539 15.6741L15.1771 15.6496L15.1946 15.6252L15.212 15.5946L15.2295 15.564L15.2469 15.5334L15.2643 15.5028L15.2759 15.4722L15.2875 15.4416L15.2991 15.4111L15.3108 15.3743L15.3166 15.3438L15.3282 15.307L15.334 15.2703L15.3398 15.2336L15.3456 15.1969L15.3514 15.1602V15.1235V15.1174V15.0868H15.2991Z" fill="#2F2D2E"/>
</svg>
