<svg width="19" height="25" viewBox="0 0 19 25" fill="none" xmlns="http://www.w3.org/2000/svg">
<path d="M16.8714 5.30373L15.1444 3.61759L13.2903 1.85449H5.70998L3.90383 3.61759L2.17688 5.30373H7.70313V20.5336L9.52429 22.2655L11.3451 20.5336V5.30373H11.3454H16.8714Z" fill="#1D1D1B"/>
<path d="M15.0812 6.9519H13.3428V13.7472L11.5265 15.4732L12.8055 16.6673L14.0972 17.874L16.877 15.2305L16.8776 6.9519H15.0812ZM5.70613 13.7472V6.9519H2.1709V15.2305L4.95168 17.874L6.24346 16.6673L7.5217 15.4732L5.70613 13.7472Z" fill="#1D1D1B"/>
<path d="M5.43741 0.926088L0.963875 5.2263V15.6499L9.50023 23.7062L18.0362 15.6499V5.22662L13.5629 0.926088H5.43741ZM0.142837 4.70759L4.90081 0.136306L5.04154 0H13.9582L14.0989 0.136306L18.8572 4.70759L19 4.84516V16.0348L18.8554 16.1709L9.83694 24.6824L9.50025 25L9.16311 24.6824L0.144987 16.171L0 16.0349V4.84524L0.142837 4.70759Z" fill="#1D1D1B"/>
</svg>
