<svg width="18" height="18" viewBox="0 0 18 18" fill="none" xmlns="http://www.w3.org/2000/svg">
<path d="M1.12497 1.22472C-0.289533 2.69397 -3.33637e-05 4.25472 -3.33637e-05 8.99621C-3.33637e-05 12.9337 -0.687035 16.881 2.90847 17.8102C4.03122 18.099 13.9792 18.099 15.1005 17.8087C16.5975 17.4225 17.8155 16.2082 17.982 14.091C18.0052 13.7955 18.0052 4.20222 17.9812 3.90072C17.8042 1.64547 16.416 0.345724 14.5867 0.0824739C14.1675 0.0217238 14.0835 0.00372377 11.9325 -2.6226e-05C4.30272 0.00372377 2.63022 -0.336026 1.12497 1.22472Z" fill="url(#paint0_linear)"/>
<path d="M8.9984 2.35432C6.27517 2.35432 3.68917 2.11206 2.70142 4.64707C2.29342 5.69406 2.35267 7.05379 2.35267 9.00083C2.35267 10.7093 2.29792 12.3151 2.70142 13.3538C3.68692 15.8903 6.2939 15.6473 8.99694 15.6473C11.6047 15.6473 14.2934 15.9188 15.2932 13.3538C15.7019 12.2963 15.6419 10.9568 15.6419 9.00083C15.6419 6.40433 15.7852 4.72806 14.5259 3.46956C13.2509 2.19456 11.5267 2.35432 8.99542 2.35432H8.9984ZM8.40294 3.55206C14.0834 3.54306 14.8064 2.91156 14.4074 11.6843C14.2657 14.787 11.9031 14.4466 8.99919 14.4466C3.70417 14.4466 3.55192 14.2951 3.55192 8.99779C3.55192 3.63907 3.97192 3.55506 8.40294 3.55056V3.55206ZM12.5459 4.65531C12.1057 4.65531 11.7487 5.01231 11.7487 5.45256C11.7487 5.89279 12.1057 6.24981 12.5459 6.24981C12.9862 6.24981 13.3432 5.89279 13.3432 5.45256C13.3432 5.01231 12.9862 4.65531 12.5459 4.65531ZM8.9984 5.58756C7.11369 5.58756 5.58592 7.11606 5.58592 9.00083C5.58592 10.8855 7.11369 12.4133 8.9984 12.4133C10.8832 12.4133 12.4102 10.8855 12.4102 9.00083C12.4102 7.11606 10.8832 5.58756 8.9984 5.58756ZM8.9984 6.78531C11.9272 6.78531 11.9309 11.2163 8.9984 11.2163C6.07042 11.2163 6.06592 6.78531 8.9984 6.78531Z" fill="white"/>
<defs>
<linearGradient id="paint0_linear" x1="1.15948" y1="16.8503" x2="17.8886" y2="2.37146" gradientUnits="userSpaceOnUse">
<stop stop-color="#FFDD55"/>
<stop offset="0.5" stop-color="#FF543E"/>
<stop offset="1" stop-color="#C837AB"/>
</linearGradient>
</defs>
</svg>
