<svg width="18" height="18" viewBox="0 0 18 18" fill="none" xmlns="http://www.w3.org/2000/svg">
<path d="M9.02111 7.35522C8.68361 7.36465 8.35389 7.40584 8.03471 7.47556C6.71314 7.85541 5.74347 9.07523 5.74347 10.5173C5.74347 12.2622 7.16303 13.6816 8.90782 13.6816C10.6527 13.6816 12.0722 12.2621 12.0722 10.5173C12.0722 8.81047 10.7137 7.4151 9.02111 7.35522Z" fill="#51B7B7"/>
<path d="M15.2724 2.63626C13.5723 0.936244 11.312 0 8.90781 0C6.50359 0 4.2433 0.936244 2.54328 2.63626C1.28163 3.89788 0.441148 5.46819 0.0913086 7.17681C1.27424 5.02921 3.56003 3.57075 6.18028 3.57075C9.97431 3.57075 13.0672 6.62824 13.1256 10.4087C13.1265 10.4448 13.127 10.481 13.127 10.5174C13.127 12.8438 11.2342 14.7365 8.90781 14.7365C6.58136 14.7365 4.68865 12.8438 4.68865 10.5173C4.68865 10.2315 4.71738 9.95225 4.7718 9.68215C4.18863 10.5361 3.84715 11.5675 3.84715 12.6773C3.84715 15.5703 6.16635 17.9316 9.04312 18C11.3966 17.9655 13.6043 17.0335 15.2723 15.3653C16.9723 13.6653 17.9087 11.4051 17.9087 9.00079C17.9087 6.59658 16.9723 4.33631 15.2724 2.63626Z" fill="#51B7B7"/>
<path d="M10.639 6.66989C9.55776 5.41867 7.95994 4.62549 6.18032 4.62549C2.93159 4.62549 0.288513 7.26855 0.288513 10.5173C0.288513 11.3396 0.456806 12.1403 0.780839 12.8796C1.21636 13.7904 1.80828 14.6303 2.54333 15.3653C3.05222 15.8742 3.61162 16.3141 4.20974 16.6814C3.3239 15.5859 2.79244 14.1926 2.79244 12.6773C2.79244 9.63761 4.92959 7.08812 7.7801 6.45145C8.1392 6.35171 8.51741 6.29819 8.90785 6.29819C8.94809 6.29819 8.98817 6.29887 9.02814 6.30004C9.07584 6.29898 9.12359 6.29819 9.1715 6.29819V6.30666C9.69154 6.33895 10.1864 6.46548 10.639 6.66989Z" fill="#51B7B7"/>
</svg>
