<svg width="21" height="18" viewBox="0 0 21 18" fill="none" xmlns="http://www.w3.org/2000/svg">
<path d="M0.617388 0.638424L0.0629883 1.27685V2.72217L0.558588 3.18325L1.05419 3.63547H4.43099V4.4335H1.57499V4.21182C1.57499 3.99015 1.56659 3.99015 0.818988 3.99015H0.0629883V5.67488H0.642588C1.17179 5.67488 1.23059 5.65714 1.36499 5.44433L1.50779 5.21379L1.73459 5.44433L1.96139 5.67488H5.75819L6.27059 5.11626L6.78299 4.5665V3.14778L6.24539 2.6335L5.69939 2.12808H2.41499V1.24138H4.93499V1.7734H6.44699V0H5.90939C5.41379 0 5.35499 0.017734 5.20379 0.239409L5.02739 0.487685L4.79219 0.239409L4.54859 0H1.17179L0.617388 0.638424ZM7.20299 0.753695V1.50739H7.79099V4.4867L8.36219 5.08079L8.93339 5.67488H12.2934L12.8562 5.07192L13.419 4.46897V1.50739H13.923V0H11.319V0.753695C11.319 1.49852 11.319 1.50739 11.529 1.50739H11.739V4.25616H9.97499V1.50739H10.479V0H7.20299V0.753695ZM14.343 0.753695V1.50739H14.931V4.25616H14.343V5.67488H17.703V4.25616H17.409C17.115 4.25616 17.115 4.25616 17.115 3.85714V3.45813H20.2734L20.6682 3.03251L21.063 2.6069V1.01084L20.5758 0.505419L20.0886 0H14.343V0.753695ZM18.9462 1.96847L18.921 2.43842L18.0222 2.46502L17.115 2.49163V1.50739H18.9714L18.9462 1.96847ZM0.0629883 6.87192V7.62562H0.650988V10.3744H0.0629883V11.8818H6.16139L6.47219 11.5448L6.78299 11.2079V9.22167H5.10299V10.3744H2.83499V9.48768H3.80099L3.77579 8.95566L3.74219 8.42365H2.83499V7.62562H5.10299V8.77833H6.78299V6.77438L6.46379 6.4463L6.14459 6.11823H0.0629883V6.87192ZM15.0822 6.83645L14.343 7.55468V10.4365L15.0906 11.1635L15.838 11.8818H19.8532L20.458 11.2345L21.0628 10.5961V9.39901H19.3828V10.3744H16.5268V7.62562H19.3828V8.51231H21.0628V6.11823H20.4412C19.8448 6.11823 19.8112 6.13596 19.6012 6.3931L19.3828 6.66798L19.1644 6.3931L18.9462 6.11823H15.813L15.0822 6.83645ZM0.0629883 13.0345V13.7438H0.650988V16.5813H0.0629883V18H6.23699L6.51419 17.6453C6.78299 17.3084 6.78299 17.2995 6.78299 16.3241V15.3399H5.10299V16.5813H2.83499V15.6946H3.75899V14.6305H2.83499V13.7438H5.10299V14.9852H6.78299V14.001C6.78299 13.0256 6.78299 13.0166 6.51419 12.6798L6.23699 12.3251H0.0629883V13.0345ZM7.20299 13.0256V13.735L7.48019 13.7616L7.74899 13.7882L7.77419 15.1803L7.79939 16.5813H7.20299V18H13.3938L13.6542 17.6542L13.923 17.2995V14.7192H12.243V16.5813H9.97499V13.7438H10.563V12.3251H7.20299V13.0256ZM14.343 13.0256V13.735L14.6202 13.7616L14.889 13.7882L14.9142 15.1803L14.9394 16.5813H14.343V18H20.5338L20.7942 17.6542L21.063 17.2995V14.7192H19.383V16.5813H17.115V13.7438H17.703V12.3251H14.343V13.0256ZM13.9062 11.2345C13.881 10.6138 13.8727 10.5961 13.6542 10.5695C13.4274 10.5429 13.419 10.5162 13.419 10.0285C13.419 9.52315 13.419 9.51411 13.0242 9.2215L12.6378 8.92002L12.9653 8.62741C13.1418 8.4678 13.318 8.3348 13.36 8.3348C13.3936 8.3348 13.4188 8.04219 13.4188 7.68751V7.04022L12.9736 6.57913L12.5283 6.11805H7.20299V7.62562H7.79099V10.3744H7.20299V11.8818H10.395V11.1281C10.395 10.3833 10.395 10.3744 10.185 10.3744C9.99179 10.3744 9.97499 10.3478 9.97499 9.93103V9.48768H11.151V11.2256L11.4702 11.5537L11.7894 11.8818H13.9314L13.9062 11.2345ZM11.151 8.57332H9.97499V7.65887H11.151V8.57332Z" fill="black"/>
</svg>
