<svg width="22" height="12" viewBox="0 0 22 12" fill="none" xmlns="http://www.w3.org/2000/svg">
<path d="M18.2554 6.85663C17.8997 6.44829 18.0015 6.26663 18.2554 5.90163C18.26 5.89743 21.1961 2.20913 21.4986 0.958293L21.5004 0.95746C21.6507 0.501626 21.5004 0.166626 20.7735 0.166626H18.3681C17.7559 0.166626 17.4735 0.454126 17.3223 0.775793C17.3223 0.775793 16.0976 3.44083 14.3651 5.16829C13.8059 5.66743 13.5474 5.82749 13.2422 5.82749C13.0919 5.82749 12.8581 5.66749 12.8581 5.21163V0.95746C12.8581 0.410793 12.6867 0.166626 12.1797 0.166626H8.3976C8.01353 0.166626 7.78527 0.421626 7.78527 0.659126C7.78527 1.17746 8.65153 1.29663 8.74133 2.75496V5.91909C8.74133 6.61243 8.60293 6.73996 8.29587 6.73996C7.47813 6.73996 5.49359 4.06409 4.3175 1.00163C4.08008 0.407459 3.84817 0.167459 3.23125 0.167459H0.825C0.138417 0.167459 0 0.454959 0 0.776626C0 1.34496 0.817666 4.17076 3.80233 7.90409C5.7915 10.4525 8.59287 11.8333 11.1412 11.8333C12.6729 11.8333 12.8599 11.5266 12.8599 10.9992C12.8599 8.56416 12.7215 8.33409 13.4887 8.33409C13.8444 8.33409 14.4567 8.49416 15.8867 9.72329C17.5211 11.1808 17.7897 11.8333 18.7046 11.8333H21.1099C21.7956 11.8333 22.143 11.5266 21.9431 10.9216C21.4857 9.64916 18.3947 7.03163 18.2554 6.85663Z" fill="#4B729F"/>
</svg>
