<svg width="16" height="17" viewBox="0 0 16 17" fill="none" xmlns="http://www.w3.org/2000/svg">
<path d="M6.20701 16.1434C7.33201 15.9873 8.36912 15.4992 9.18822 14.7355C10.1937 13.7959 10.7492 12.5508 10.7562 11.2226L10.7421 5.3158C11.2203 5.66445 11.7441 5.95665 12.3101 6.1791C13.1855 6.52775 14.1136 6.70705 15.0664 6.70705V4.79121C14.0082 4.59864 13.0871 4.04082 12.4578 3.25723C11.6281 2.66621 11.0304 1.79629 10.823 0.796875H8.80858V8.0119L8.80503 11.9631C8.80503 13.019 8.07027 13.9155 7.05075 14.2309C6.75544 14.3239 6.43551 14.367 6.10153 14.347C5.25779 14.3039 4.52303 13.8756 4.09059 13.248C3.35583 12.8363 2.8566 12.0893 2.84254 11.2326C2.82145 9.89785 3.97457 8.8088 5.4019 8.8088C5.68316 8.8088 5.95388 8.85195 6.20701 8.9283V6.9627C4.78671 6.97265 3.45426 7.49395 2.45231 8.4336C1.45739 9.3666 0.887856 10.6416 0.891374 11.9631C0.891374 13.1385 1.3238 14.2541 2.12184 15.1473C3.05699 15.828 4.1996 16.1965 5.4019 16.1965C5.67262 16.1998 5.94334 16.1799 6.20701 16.1434Z" fill="black"/>
</svg>
