<svg width="18" height="23" viewBox="0 0 18 23" fill="none" xmlns="http://www.w3.org/2000/svg">
<path d="M8.973 0.158724C9.02224 0.279196 8.93706 0.389425 8.86732 0.482583C8.37337 1.14835 7.98503 1.89284 7.83017 2.69322C7.76961 2.85749 7.78297 2.97987 7.83017 2.99353C8.78882 2.91354 9.8701 2.92274 10.8139 3.11442C12.5311 3.44316 14.136 4.26939 15.3696 5.45069C16.5996 6.61981 17.4628 8.13475 17.8122 9.75548C18.1994 11.5104 17.983 13.3784 17.2085 15.0128C15.5661 18.3504 12.7973 21.1734 9.40947 22.963C9.30025 23.0113 9.14278 23.0132 9.06788 22.9098C8.97968 22.8016 9.01608 22.6474 9.10324 22.5489C9.56026 21.9426 9.87933 21.2456 10.0527 20.5189C10.086 20.3682 10.1317 20.2155 10.1178 20.0604C10.0619 19.9912 9.96962 20.0121 9.89112 20.0146C8.24667 20.1711 6.55455 19.8917 5.06863 19.201C3.47704 18.4719 2.12651 17.2798 1.23352 15.8308C0.406174 14.4978 -0.0287834 12.9453 0.00147893 11.3967C0.00712103 9.97545 0.414894 8.56591 1.13298 7.32167C2.80459 4.26988 5.42921 1.69462 8.59802 0.0309365C8.73087 -0.0392979 8.92736 0.0128901 8.973 0.158724ZM8.5057 8.18641C7.5276 8.31126 6.62534 8.85754 6.07755 9.636C5.7067 10.1705 5.48205 10.8056 5.48666 11.4484C5.45896 12.3098 5.82004 13.1726 6.4458 13.793C6.99259 14.3529 7.75225 14.7178 8.54878 14.8153C9.35971 14.9172 10.2066 14.7367 10.8934 14.3129C11.5915 13.8915 12.1233 13.2262 12.3614 12.4727C12.8081 11.1646 12.2726 9.63211 11.1073 8.82392C10.3753 8.29421 9.41563 8.05914 8.5057 8.18641Z" fill="url(#paint0_linear)"/>
<defs>
<linearGradient id="paint0_linear" x1="9" y1="-1.01335e-08" x2="9" y2="22.9949" gradientUnits="userSpaceOnUse">
<stop stop-color="#FF9900"/>
<stop offset="1" stop-color="#F05A22"/>
</linearGradient>
</defs>
</svg>
