<svg width="22" height="19" viewBox="0 0 22 19" fill="none" xmlns="http://www.w3.org/2000/svg">
<path d="M16.4111 0C13.3411 0 10.8368 2.49873 10.813 5.57951L7.32693 10.6094C6.35433 10.5204 5.51559 10.7234 4.774 11.1785L0 9.23495V14.5429L2.82333 15.6856C3.23125 17.5754 4.9115 19 6.89973 19C9.06127 19 10.8524 17.3289 11.0495 15.2009L16.4166 11.2536C19.4957 11.2536 22 8.74095 22 5.62492L21.9991 5.624C21.9991 2.52283 19.4947 0 16.4111 0ZM6.89973 17.8804C5.72 17.8804 4.70433 17.2122 4.18825 16.238C4.68875 16.4308 5.19475 16.643 5.69617 16.8414C6.94927 17.3604 8.37287 16.7422 8.87333 15.4808C9.37933 14.2194 8.76513 12.7958 7.51393 12.2907L6.237 11.7716C6.45791 11.7216 6.6788 11.6975 6.89973 11.6975C8.60387 11.6975 9.96873 13.072 9.96873 14.7885C9.96873 16.5059 8.60387 17.8804 6.89973 17.8804ZM16.4166 9.39436C14.344 9.39436 12.6601 7.71216 12.6601 5.62492C12.6601 3.54698 14.3394 1.85551 16.4166 1.85551C18.4745 1.85551 20.1584 3.54698 20.1584 5.62492C20.1584 7.71774 18.4736 9.39993 16.4166 9.39436Z" fill="#3D3D3D"/>
</svg>
